<?xml version="1.0" encoding="utf-8"?>
<!-- Generator: Adobe Illustrator 16.0.0, SVG Export Plug-In . SVG Version: 6.00 Build 0)  -->
<!DOCTYPE svg PUBLIC "-//W3C//DTD SVG 1.1//EN" "http://www.w3.org/Graphics/SVG/1.1/DTD/svg11.dtd">
<svg version="1.1" id="Layer_1" xmlns="http://www.w3.org/2000/svg" xmlns:xlink="http://www.w3.org/1999/xlink" x="0px" y="0px"
	 width="24px" height="24px" viewBox="0 0 24 24" enable-background="new 0 0 24 24" xml:space="preserve">
<path d="M21.06,6.66l-0.72-0.72C20.07,5.67,19.7,5.5,19.28,5.5s-0.79,0.17-1.062,0.44L17.16,7L20,9.84l1.06-1.06
	c0.271-0.27,0.44-0.64,0.44-1.06C21.5,7.3,21.33,6.93,21.06,6.66L21.06,6.66z"/>
<path d="M9.5,14.66v2.84h2.84l6.601-6.6L16.1,8.06L9.5,14.66z"/>
<path d="M12.34,19H9.5C8.67,19,8,18.33,8,17.5v-2.84c0-0.4,0.16-0.78,0.44-1.062l7.079-7.08L12,3H5C3.9,3,3,3.9,3,5v14
	c0,1.1,0.9,2,2,2h10c1.1,0,2-0.9,2-2v-4.04l-3.6,3.6C13.12,18.84,12.74,19,12.34,19z"/>
</svg>
