<?xml version="1.0" encoding="utf-8"?>
<!-- Generator: Adobe Illustrator 16.0.0, SVG Export Plug-In . SVG Version: 6.00 Build 0)  -->
<!DOCTYPE svg PUBLIC "-//W3C//DTD SVG 1.1//EN" "http://www.w3.org/Graphics/SVG/1.1/DTD/svg11.dtd">
<svg version="1.1" id="Layer_1" xmlns="http://www.w3.org/2000/svg" xmlns:xlink="http://www.w3.org/1999/xlink" x="0px" y="0px"
	 width="40px" height="40px" viewBox="0 0 40 40" enable-background="new 0 0 40 40" xml:space="preserve">
<path d="M29.75,26.04l-5.51-10.1c-0.16-0.3-0.24-0.63-0.24-0.96V13h1c1.1,0,2-0.9,2-2s-0.9-2-2-2H15c-1.1,0-2,0.9-2,2s0.9,2,2,2h1
	v1.98c0,0.33-0.08,0.66-0.24,0.96l-5.51,10.09c-0.34,0.63-0.33,1.39,0.03,1.989C10.64,28.62,11.3,29,12,29h16
	c0.7,0,1.36-0.38,1.72-0.98C30.08,27.42,30.09,26.66,29.75,26.04z M18.5,26c-1.38,0-2.5-1.12-2.5-2.5s1.12-2.5,2.5-2.5
	s2.5,1.12,2.5,2.5S19.88,26,18.5,26z M20.5,19c-0.83,0-1.5-0.67-1.5-1.5s0.67-1.5,1.5-1.5s1.5,0.67,1.5,1.5S21.33,19,20.5,19z
	 M22,13.56c-0.16-0.04-0.33-0.06-0.5-0.06c-1.1,0-1.9,1-3,1c-0.17,0-0.34-0.02-0.5-0.06V11h4V13.56z"/>
</svg>
