<?xml version="1.0" encoding="utf-8"?>
<!-- Generator: Adobe Illustrator 16.0.0, SVG Export Plug-In . SVG Version: 6.00 Build 0)  -->
<!DOCTYPE svg PUBLIC "-//W3C//DTD SVG 1.1//EN" "http://www.w3.org/Graphics/SVG/1.1/DTD/svg11.dtd">
<svg version="1.1" id="Layer_1" xmlns="http://www.w3.org/2000/svg" xmlns:xlink="http://www.w3.org/1999/xlink" x="0px" y="0px"
	 width="40px" height="40px" viewBox="0 0 40 40" enable-background="new 0 0 40 40" xml:space="preserve">
<path d="M27.834,26.8L23.672,18.9C23.56,18.68,23.5,18.439,23.5,18.2v-3.201c0.831,0,1.503-0.669,1.503-1.5S24.331,12,23.5,12
	h-7.001c-0.831,0-1.501,0.669-1.501,1.5s0.67,1.5,1.501,1.5V18.2c0,0.24-0.06,0.48-0.17,0.701L12.167,26.8
	c-0.24,0.472-0.22,1.042,0.049,1.481C12.498,28.739,12.967,29,13.498,29h13.005c0.518,0,1-0.271,1.279-0.719
	C28.053,27.842,28.073,27.271,27.834,26.8z M13.498,27.5l4.161-7.899c0-0.01,0.011-0.01,0.011-0.021c0.22-0.45,0.33-0.92,0.33-1.38
	v-4.7h4.002v4.7c0,0.47,0.11,0.94,0.33,1.371l4.172,7.929H13.498L13.498,27.5z"/>
<path d="M22.001,21.5c0,0.827-0.673,1.499-1.501,1.499c-0.829,0-1.501-0.672-1.501-1.499c0-0.828,0.672-1.5,1.501-1.5
	C21.328,20,22.001,20.672,22.001,21.5z"/>
<path d="M18.999,23.999c0,0.555-0.448,1.002-1,1.002c-0.552,0-1-0.447-1-1.002c0-0.552,0.448-1,1-1
	C18.551,22.999,18.999,23.447,18.999,23.999z"/>
<path d="M23,25.001c0,0.552-0.447,1-0.999,1c-0.554,0-1.001-0.448-1.001-1c0-0.555,0.447-1.002,1.001-1.002
	C22.554,23.999,23,24.446,23,25.001z"/>
<path d="M21,16c0,0.552-0.448,1-1,1c-0.553,0-1.001-0.448-1.001-1c0-0.553,0.448-1.001,1.001-1.001C20.552,14.999,21,15.447,21,16z"
	/>
</svg>
