<?xml version="1.0" encoding="utf-8"?>
<!-- Generator: Adobe Illustrator 16.0.0, SVG Export Plug-In . SVG Version: 6.00 Build 0)  -->
<!DOCTYPE svg PUBLIC "-//W3C//DTD SVG 1.1//EN" "http://www.w3.org/Graphics/SVG/1.1/DTD/svg11.dtd">
<svg version="1.1" id="Layer_1" xmlns="http://www.w3.org/2000/svg" xmlns:xlink="http://www.w3.org/1999/xlink" x="0px" y="0px"
	 width="24px" height="24px" viewBox="0 0 24 24" enable-background="new 0 0 24 24" xml:space="preserve">
<path d="M19.065,4.934C17.109,2.978,14.754,2,12,2C9.246,2,6.891,2.978,4.934,4.934C2.978,6.891,2,9.246,2,12
	c0,2.754,0.978,5.109,2.934,7.065C6.891,21.021,9.246,22,12,22c2.754,0,5.109-0.979,7.065-2.935S22,14.754,22,12
	C22,9.246,21.021,6.891,19.065,4.934z M12.986,18.995h-1.972v-1.972h1.972V18.995z M15.052,11.249l-0.893,0.939
	c-0.782,0.845-1.173,1.784-1.173,2.817h-1.972v-0.517c0-1.033,0.391-1.972,1.174-2.817l1.22-1.268
	c0.407-0.407,0.61-0.876,0.61-1.409c0-0.532-0.203-1.001-0.61-1.408C13.002,7.18,12.532,6.977,12,6.977s-1.001,0.204-1.409,0.61
	c-0.407,0.407-0.61,0.876-0.61,1.408H8.009c0-1.095,0.391-2.034,1.174-2.817C9.965,5.396,10.904,5.005,12,5.005
	s2.034,0.391,2.817,1.173C15.6,6.961,15.99,7.9,15.99,8.995C15.99,9.872,15.678,10.623,15.052,11.249z"/>
</svg>
