<?xml version="1.0" encoding="utf-8"?>
<!-- Generator: Adobe Illustrator 16.0.0, SVG Export Plug-In . SVG Version: 6.00 Build 0)  -->
<!DOCTYPE svg PUBLIC "-//W3C//DTD SVG 1.1//EN" "http://www.w3.org/Graphics/SVG/1.1/DTD/svg11.dtd">
<svg version="1.1" id="Layer_1" xmlns="http://www.w3.org/2000/svg" xmlns:xlink="http://www.w3.org/1999/xlink" x="0px" y="0px"
	 width="24px" height="24px" viewBox="0 0 24 24" enable-background="new 0 0 24 24" xml:space="preserve">
<path d="M22.393,4.109C21.985,3.703,21.519,3.5,20.987,3.5H3.013c-0.53,0-0.999,0.203-1.404,0.609C1.203,4.515,1,4.983,1,5.514
	v12.973c0,0.529,0.203,0.999,0.608,1.404C2.014,20.297,2.482,20.5,3.013,20.5h17.975c0.53,0,0.998-0.203,1.404-0.608
	C22.797,19.485,23,19.017,23,18.486V5.514C23,4.983,22.797,4.515,22.393,4.109L22.393,4.109z M20.987,18.486H12V5.514h8.987V18.486z
	"/>
<path d="M12.983,13.99h7.021v1.499h-7.021V13.99z"/>
<path d="M12.983,11.508h7.021v1.499h-7.021V11.508z"/>
<path d="M12.983,9.026h7.021v1.499h-7.021V9.026z"/>
</svg>
