<?xml version="1.0" encoding="utf-8"?>
<!-- Generator: Adobe Illustrator 16.0.0, SVG Export Plug-In . SVG Version: 6.00 Build 0)  -->
<!DOCTYPE svg PUBLIC "-//W3C//DTD SVG 1.1//EN" "http://www.w3.org/Graphics/SVG/1.1/DTD/svg11.dtd">
<svg version="1.1" id="Layer_1" xmlns="http://www.w3.org/2000/svg" xmlns:xlink="http://www.w3.org/1999/xlink" x="0px" y="0px"
	 width="24px" height="24px" viewBox="0 0 24 24" enable-background="new 0 0 24 24" xml:space="preserve">
<path d="M7,5h14v2H7V5z"/>
<path d="M7,11h14v2H7V11z"/>
<path d="M7,17h14v2H7V17z"/>
<path d="M5.5,18c0,0.828-0.671,1.5-1.5,1.5S2.5,18.828,2.5,18s0.671-1.5,1.5-1.5S5.5,17.172,5.5,18z"/>
<path d="M5.5,12c0,0.828-0.671,1.5-1.5,1.5S2.5,12.828,2.5,12c0-0.829,0.671-1.5,1.5-1.5S5.5,11.171,5.5,12z"/>
<path d="M5.5,6c0,0.829-0.671,1.5-1.5,1.5S2.5,6.829,2.5,6S3.171,4.5,4,4.5S5.5,5.171,5.5,6z"/>
</svg>
