<?xml version="1.0" encoding="utf-8"?>
<!-- Generator: Adobe Illustrator 16.0.0, SVG Export Plug-In . SVG Version: 6.00 Build 0)  -->
<!DOCTYPE svg PUBLIC "-//W3C//DTD SVG 1.1//EN" "http://www.w3.org/Graphics/SVG/1.1/DTD/svg11.dtd">
<svg version="1.1" id="Layer_1" xmlns="http://www.w3.org/2000/svg" xmlns:xlink="http://www.w3.org/1999/xlink" x="0px" y="0px"
	 width="24px" height="24px" viewBox="0 0 24 24" enable-background="new 0 0 24 24" xml:space="preserve">
<path d="M21.577,14.629l-2.112-1.643c0.031-0.22,0.047-0.548,0.047-0.986c0-0.438-0.016-0.767-0.047-0.986l2.112-1.643
	c0.22-0.157,0.251-0.376,0.094-0.658l-2.019-3.474c-0.125-0.219-0.328-0.282-0.61-0.188l-2.488,0.986
	c-0.532-0.407-1.095-0.735-1.689-0.986l-0.376-2.629C14.426,2.141,14.27,2,14.019,2H9.981c-0.25,0-0.407,0.141-0.47,0.422
	L9.136,5.052c-0.47,0.188-1.033,0.516-1.69,0.986L4.958,5.052c-0.281-0.094-0.485-0.031-0.61,0.188L2.329,8.713
	C2.172,8.995,2.204,9.214,2.422,9.371l2.113,1.643C4.504,11.233,4.488,11.562,4.488,12c0,0.438,0.016,0.767,0.047,0.986
	l-2.113,1.643c-0.219,0.156-0.25,0.376-0.094,0.657l2.019,3.475c0.125,0.219,0.329,0.281,0.61,0.188l2.488-0.985
	c0.532,0.406,1.096,0.735,1.69,0.985l0.375,2.629C9.574,21.859,9.731,22,9.981,22h4.037c0.251,0,0.407-0.141,0.47-0.423l0.376-2.629
	c0.469-0.188,1.032-0.517,1.689-0.985l2.488,0.985c0.282,0.094,0.485,0.031,0.61-0.188l2.019-3.475
	C21.828,15.005,21.797,14.785,21.577,14.629z M14.488,14.488C13.8,15.177,12.971,15.521,12,15.521c-0.97,0-1.8-0.345-2.488-1.033
	S8.479,12.971,8.479,12c0-0.97,0.344-1.8,1.033-2.488S11.03,8.479,12,8.479c0.971,0,1.8,0.344,2.488,1.033S15.521,11.03,15.521,12
	C15.521,12.971,15.177,13.8,14.488,14.488z"/>
</svg>
